<?xml version="1.0" encoding="utf-8"?>
<!-- Generator: Adobe Illustrator 16.0.4, SVG Export Plug-In . SVG Version: 6.00 Build 0)  -->
<!DOCTYPE svg PUBLIC "-//W3C//DTD SVG 1.1//EN" "http://www.w3.org/Graphics/SVG/1.1/DTD/svg11.dtd">
<svg version="1.1" id="Layer_1" xmlns="http://www.w3.org/2000/svg" xmlns:xlink="http://www.w3.org/1999/xlink" x="0px" y="0px"
	 width="67px" height="67px" viewBox="0 0 67 67" enable-background="new 0 0 67 67" xml:space="preserve">
<path fill="#333333" d="M34,4C17.432,4,4,17.432,4,34s13.432,30,30,30s30-13.432,30-30S50.568,4,34,4z M29.479,26.24l10.589,6.245
	l-1.334,2.261L28.145,28.5L29.479,26.24z M26.646,32.297l11.871,3.191l-0.682,2.535l-11.872-3.191L26.646,32.297z M25.469,37.787
	l12.241,1.127l-0.241,2.615L25.229,40.4L25.469,37.787z M37.413,42.281l0.001,2.625l-12.293,0.006l-0.001-2.625L37.413,42.281z
	 M41.602,48.449c0,0,0,0.613-0.021,0.613v0.012H21.912c0,0-0.613,0-0.613-0.012h-0.021V36.27h2.1v10.734h16.124V36.27h2.1V48.449z
	 M40.495,32.125l-6.927-10.156l2.169-1.479l6.927,10.157L40.495,32.125z M43.134,30.487l-2.103-12.111l2.587-0.449l2.104,12.111
	L43.134,30.487z"/>
<path display="none" fill="#333333" d="M34,64c16.568,0,30-13.432,30-30S50.568,4,34,4S4,17.432,4,34S17.432,64,34,64z"/>
<path display="none" fill="#FFFFFF" d="M40.934,36.013l-15.381-3.167l-0.783,3.284l17.678,3.64l0.649-2.723l0.867,0.414l1.575-3.464
	l-16.888-8.074l-1.574,3.463L40.934,36.013L40.934,36.013z M47.846,37.461v10.385H20.154V37.461h3.461v6.924h20.77v-6.924H47.846z
	 M24.769,39.77H43.23v3.461H24.769V39.77z M47.846,30.963L45.543,34L30.539,22.349l1.666-2.195h1.72L47.846,30.963z"/>
</svg>
