<?xml version="1.0" encoding="utf-8"?>
<!-- Generator: Adobe Illustrator 16.0.4, SVG Export Plug-In . SVG Version: 6.00 Build 0)  -->
<!DOCTYPE svg PUBLIC "-//W3C//DTD SVG 1.1//EN" "http://www.w3.org/Graphics/SVG/1.1/DTD/svg11.dtd">
<svg version="1.1" id="Layer_1" xmlns="http://www.w3.org/2000/svg" xmlns:xlink="http://www.w3.org/1999/xlink" x="0px" y="0px"
	 width="67px" height="67px" viewBox="0 0 67 67" enable-background="new 0 0 67 67" xml:space="preserve">
<path fill="#515151" d="M34,4C17.432,4,4,17.432,4,34c0,16.568,13.432,30,30,30c16.568,0,30-13.432,30-30C64,17.432,50.568,4,34,4z
	 M24.27,39.27h17.678L24.27,35.63l0.783-3.283l15.38,3.167l-13.855-6.625l1.574-3.464l16.888,8.074l-1.575,3.464l-0.867-0.414
	l-0.646,2.725h0.78v3.461H24.27V39.27z M47.346,47.346H19.654V36.961h3.461v6.924h20.77v-6.924h3.461V47.346z M45.043,33.5
	L30.039,21.85l1.666-2.195h1.72l13.921,10.809L45.043,33.5z"/>
</svg>
